<mxfile host="app.diagrams.net" agent="Mozilla/5.0 (Windows NT 10.0; Win64; x64) AppleWebKit/537.36 (KHTML, like Gecko) Chrome/131.0.0.0 Safari/537.36 Edg/131.0.0.0" version="25.0.1">
  <diagram name="Page-1" id="kvMi2BXPW7Tf8lSBRtNX">
    <mxGraphModel dx="1426" dy="827" grid="1" gridSize="10" guides="1" tooltips="1" connect="1" arrows="1" fold="1" page="1" pageScale="1" pageWidth="850" pageHeight="1100" math="0" shadow="0">
      <root>
        <mxCell id="0" />
        <mxCell id="1" parent="0" />
        <mxCell id="GcK93VEjOKWXYyR5W1mf-1" value="SPSO" style="swimlane;whiteSpace=wrap;startSize=23;" vertex="1" parent="1">
          <mxGeometry x="110" y="60" width="310" height="710" as="geometry" />
        </mxCell>
        <mxCell id="GcK93VEjOKWXYyR5W1mf-2" value="Start Log" style="" vertex="1" parent="GcK93VEjOKWXYyR5W1mf-1">
          <mxGeometry x="60" y="110" width="120" height="50" as="geometry" />
        </mxCell>
        <mxCell id="GcK93VEjOKWXYyR5W1mf-3" value="Specify Log Properties" style="" vertex="1" parent="GcK93VEjOKWXYyR5W1mf-1">
          <mxGeometry x="60" y="180" width="120" height="60" as="geometry" />
        </mxCell>
        <mxCell id="GcK93VEjOKWXYyR5W1mf-4" value="" style="html=1;points=[];perimeter=orthogonalPerimeter;fillColor=strokeColor;" vertex="1" parent="GcK93VEjOKWXYyR5W1mf-1">
          <mxGeometry x="60" y="290" width="5" height="110" as="geometry" />
        </mxCell>
        <mxCell id="GcK93VEjOKWXYyR5W1mf-5" value="End date" style="" vertex="1" parent="GcK93VEjOKWXYyR5W1mf-1">
          <mxGeometry x="92.5" y="320" width="55" height="20" as="geometry" />
        </mxCell>
        <mxCell id="GcK93VEjOKWXYyR5W1mf-6" value="User" style="" vertex="1" parent="GcK93VEjOKWXYyR5W1mf-1">
          <mxGeometry x="92.5" y="350" width="55" height="20" as="geometry" />
        </mxCell>
        <mxCell id="GcK93VEjOKWXYyR5W1mf-7" value="Printer" style="" vertex="1" parent="GcK93VEjOKWXYyR5W1mf-1">
          <mxGeometry x="92.5" y="380" width="55" height="20" as="geometry" />
        </mxCell>
        <mxCell id="GcK93VEjOKWXYyR5W1mf-8" value="Start date" style="" vertex="1" parent="GcK93VEjOKWXYyR5W1mf-1">
          <mxGeometry x="92.5" y="290" width="55" height="20" as="geometry" />
        </mxCell>
        <mxCell id="GcK93VEjOKWXYyR5W1mf-9" value="" style="html=1;verticalAlign=bottom;labelBackgroundColor=none;endArrow=block;endFill=1;rounded=0;entryX=0.171;entryY=0.093;entryDx=0;entryDy=0;entryPerimeter=0;" edge="1" parent="GcK93VEjOKWXYyR5W1mf-1">
          <mxGeometry width="160" relative="1" as="geometry">
            <mxPoint x="147.5" y="329.76" as="sourcePoint" />
            <mxPoint x="180.5" y="329.76" as="targetPoint" />
          </mxGeometry>
        </mxCell>
        <mxCell id="GcK93VEjOKWXYyR5W1mf-10" value="" style="html=1;verticalAlign=bottom;labelBackgroundColor=none;endArrow=block;endFill=1;rounded=0;entryX=0.171;entryY=0.093;entryDx=0;entryDy=0;entryPerimeter=0;" edge="1" parent="GcK93VEjOKWXYyR5W1mf-1">
          <mxGeometry width="160" relative="1" as="geometry">
            <mxPoint x="147.5" y="359.76" as="sourcePoint" />
            <mxPoint x="180.5" y="359.76" as="targetPoint" />
          </mxGeometry>
        </mxCell>
        <mxCell id="GcK93VEjOKWXYyR5W1mf-11" value="" style="html=1;verticalAlign=bottom;labelBackgroundColor=none;endArrow=block;endFill=1;rounded=0;entryX=0.171;entryY=0.093;entryDx=0;entryDy=0;entryPerimeter=0;" edge="1" parent="GcK93VEjOKWXYyR5W1mf-1">
          <mxGeometry width="160" relative="1" as="geometry">
            <mxPoint x="147.5" y="389.76" as="sourcePoint" />
            <mxPoint x="180.5" y="389.76" as="targetPoint" />
          </mxGeometry>
        </mxCell>
        <mxCell id="GcK93VEjOKWXYyR5W1mf-12" value="" style="html=1;verticalAlign=bottom;labelBackgroundColor=none;endArrow=block;endFill=1;rounded=0;entryX=0.171;entryY=0.093;entryDx=0;entryDy=0;entryPerimeter=0;" edge="1" parent="GcK93VEjOKWXYyR5W1mf-1">
          <mxGeometry width="160" relative="1" as="geometry">
            <mxPoint x="60" y="329.76" as="sourcePoint" />
            <mxPoint x="93" y="329.76" as="targetPoint" />
          </mxGeometry>
        </mxCell>
        <mxCell id="GcK93VEjOKWXYyR5W1mf-13" value="" style="html=1;verticalAlign=bottom;labelBackgroundColor=none;endArrow=block;endFill=1;rounded=0;entryX=0.171;entryY=0.093;entryDx=0;entryDy=0;entryPerimeter=0;" edge="1" parent="GcK93VEjOKWXYyR5W1mf-1">
          <mxGeometry width="160" relative="1" as="geometry">
            <mxPoint x="59.5" y="359.76" as="sourcePoint" />
            <mxPoint x="92.5" y="359.76" as="targetPoint" />
          </mxGeometry>
        </mxCell>
        <mxCell id="GcK93VEjOKWXYyR5W1mf-14" value="" style="html=1;verticalAlign=bottom;labelBackgroundColor=none;endArrow=block;endFill=1;rounded=0;entryX=0.171;entryY=0.093;entryDx=0;entryDy=0;entryPerimeter=0;" edge="1" parent="GcK93VEjOKWXYyR5W1mf-1">
          <mxGeometry width="160" relative="1" as="geometry">
            <mxPoint x="60" y="389.76" as="sourcePoint" />
            <mxPoint x="93" y="389.76" as="targetPoint" />
          </mxGeometry>
        </mxCell>
        <mxCell id="GcK93VEjOKWXYyR5W1mf-15" value="" style="html=1;verticalAlign=bottom;labelBackgroundColor=none;endArrow=block;endFill=1;rounded=0;entryX=0.171;entryY=0.093;entryDx=0;entryDy=0;entryPerimeter=0;" edge="1" parent="GcK93VEjOKWXYyR5W1mf-1">
          <mxGeometry width="160" relative="1" as="geometry">
            <mxPoint x="60" y="299.76" as="sourcePoint" />
            <mxPoint x="93" y="299.76" as="targetPoint" />
          </mxGeometry>
        </mxCell>
        <mxCell id="GcK93VEjOKWXYyR5W1mf-16" style="edgeStyle=orthogonalEdgeStyle;rounded=0;orthogonalLoop=1;jettySize=auto;html=1;entryX=-0.067;entryY=0.548;entryDx=0;entryDy=0;entryPerimeter=0;" edge="1" parent="GcK93VEjOKWXYyR5W1mf-1" source="GcK93VEjOKWXYyR5W1mf-3" target="GcK93VEjOKWXYyR5W1mf-4">
          <mxGeometry relative="1" as="geometry" />
        </mxCell>
        <mxCell id="GcK93VEjOKWXYyR5W1mf-17" style="edgeStyle=orthogonalEdgeStyle;rounded=0;orthogonalLoop=1;jettySize=auto;html=1;exitX=0.5;exitY=1;exitDx=0;exitDy=0;entryX=0.5;entryY=0;entryDx=0;entryDy=0;" edge="1" parent="GcK93VEjOKWXYyR5W1mf-1" source="GcK93VEjOKWXYyR5W1mf-19" target="GcK93VEjOKWXYyR5W1mf-20">
          <mxGeometry relative="1" as="geometry" />
        </mxCell>
        <mxCell id="GcK93VEjOKWXYyR5W1mf-18" value="No" style="edgeLabel;html=1;align=center;verticalAlign=middle;resizable=0;points=[];" vertex="1" connectable="0" parent="GcK93VEjOKWXYyR5W1mf-17">
          <mxGeometry x="-0.6" y="3" relative="1" as="geometry">
            <mxPoint as="offset" />
          </mxGeometry>
        </mxCell>
        <mxCell id="GcK93VEjOKWXYyR5W1mf-19" value="Respecify?" style="rhombus;" vertex="1" parent="GcK93VEjOKWXYyR5W1mf-1">
          <mxGeometry x="110" y="520" width="70" height="70" as="geometry" />
        </mxCell>
        <mxCell id="GcK93VEjOKWXYyR5W1mf-20" value="" style="ellipse;html=1;shape=endState;fillColor=strokeColor;" vertex="1" parent="GcK93VEjOKWXYyR5W1mf-1">
          <mxGeometry x="130" y="620" width="30" height="30" as="geometry" />
        </mxCell>
        <mxCell id="GcK93VEjOKWXYyR5W1mf-21" style="edgeStyle=orthogonalEdgeStyle;rounded=0;orthogonalLoop=1;jettySize=auto;html=1;exitX=0.5;exitY=1;exitDx=0;exitDy=0;" edge="1" parent="GcK93VEjOKWXYyR5W1mf-1" source="GcK93VEjOKWXYyR5W1mf-22" target="GcK93VEjOKWXYyR5W1mf-2">
          <mxGeometry relative="1" as="geometry" />
        </mxCell>
        <mxCell id="GcK93VEjOKWXYyR5W1mf-22" value="" style="ellipse;fillColor=strokeColor;html=1;" vertex="1" parent="GcK93VEjOKWXYyR5W1mf-1">
          <mxGeometry x="105" y="40" width="20" height="20" as="geometry" />
        </mxCell>
        <mxCell id="GcK93VEjOKWXYyR5W1mf-23" value="SYSTEM" style="swimlane;whiteSpace=wrap" vertex="1" parent="1">
          <mxGeometry x="420" y="60" width="320" height="710" as="geometry" />
        </mxCell>
        <mxCell id="GcK93VEjOKWXYyR5W1mf-24" style="edgeStyle=orthogonalEdgeStyle;rounded=0;orthogonalLoop=1;jettySize=auto;html=1;exitX=0.5;exitY=1;exitDx=0;exitDy=0;entryX=0.5;entryY=0;entryDx=0;entryDy=0;" edge="1" parent="GcK93VEjOKWXYyR5W1mf-23" source="GcK93VEjOKWXYyR5W1mf-25" target="GcK93VEjOKWXYyR5W1mf-30">
          <mxGeometry relative="1" as="geometry" />
        </mxCell>
        <mxCell id="GcK93VEjOKWXYyR5W1mf-25" value="Check Log" style="" vertex="1" parent="GcK93VEjOKWXYyR5W1mf-23">
          <mxGeometry x="85" y="110" width="110" height="50" as="geometry" />
        </mxCell>
        <mxCell id="GcK93VEjOKWXYyR5W1mf-26" style="edgeStyle=orthogonalEdgeStyle;rounded=0;orthogonalLoop=1;jettySize=auto;html=1;exitX=0;exitY=0.5;exitDx=0;exitDy=0;" edge="1" parent="GcK93VEjOKWXYyR5W1mf-23" source="GcK93VEjOKWXYyR5W1mf-30" target="GcK93VEjOKWXYyR5W1mf-34">
          <mxGeometry relative="1" as="geometry" />
        </mxCell>
        <mxCell id="GcK93VEjOKWXYyR5W1mf-27" value="Yes" style="edgeLabel;html=1;align=center;verticalAlign=middle;resizable=0;points=[];" vertex="1" connectable="0" parent="GcK93VEjOKWXYyR5W1mf-26">
          <mxGeometry x="-0.6" y="-4" relative="1" as="geometry">
            <mxPoint as="offset" />
          </mxGeometry>
        </mxCell>
        <mxCell id="GcK93VEjOKWXYyR5W1mf-28" style="edgeStyle=orthogonalEdgeStyle;rounded=0;orthogonalLoop=1;jettySize=auto;html=1;exitX=1;exitY=0.5;exitDx=0;exitDy=0;" edge="1" parent="GcK93VEjOKWXYyR5W1mf-23" source="GcK93VEjOKWXYyR5W1mf-30" target="GcK93VEjOKWXYyR5W1mf-32">
          <mxGeometry relative="1" as="geometry" />
        </mxCell>
        <mxCell id="GcK93VEjOKWXYyR5W1mf-29" value="No" style="edgeLabel;html=1;align=center;verticalAlign=middle;resizable=0;points=[];" vertex="1" connectable="0" parent="GcK93VEjOKWXYyR5W1mf-28">
          <mxGeometry x="-0.7833" y="1" relative="1" as="geometry">
            <mxPoint x="9" y="-4" as="offset" />
          </mxGeometry>
        </mxCell>
        <mxCell id="GcK93VEjOKWXYyR5W1mf-30" value="have?" style="rhombus;" vertex="1" parent="GcK93VEjOKWXYyR5W1mf-23">
          <mxGeometry x="115" y="330" width="50" height="50" as="geometry" />
        </mxCell>
        <mxCell id="GcK93VEjOKWXYyR5W1mf-31" style="edgeStyle=orthogonalEdgeStyle;rounded=0;orthogonalLoop=1;jettySize=auto;html=1;exitX=0.5;exitY=1;exitDx=0;exitDy=0;entryX=1;entryY=0.5;entryDx=0;entryDy=0;" edge="1" parent="GcK93VEjOKWXYyR5W1mf-23" source="GcK93VEjOKWXYyR5W1mf-32" target="GcK93VEjOKWXYyR5W1mf-35">
          <mxGeometry relative="1" as="geometry" />
        </mxCell>
        <mxCell id="GcK93VEjOKWXYyR5W1mf-32" value="Display empty" style="" vertex="1" parent="GcK93VEjOKWXYyR5W1mf-23">
          <mxGeometry x="140" y="450" width="110" height="50" as="geometry" />
        </mxCell>
        <mxCell id="GcK93VEjOKWXYyR5W1mf-33" style="edgeStyle=orthogonalEdgeStyle;rounded=0;orthogonalLoop=1;jettySize=auto;html=1;exitX=0.5;exitY=1;exitDx=0;exitDy=0;entryX=0.5;entryY=0;entryDx=0;entryDy=0;" edge="1" parent="GcK93VEjOKWXYyR5W1mf-23" source="GcK93VEjOKWXYyR5W1mf-34" target="GcK93VEjOKWXYyR5W1mf-35">
          <mxGeometry relative="1" as="geometry" />
        </mxCell>
        <mxCell id="GcK93VEjOKWXYyR5W1mf-34" value="Display log" style="" vertex="1" parent="GcK93VEjOKWXYyR5W1mf-23">
          <mxGeometry x="10" y="450" width="110" height="50" as="geometry" />
        </mxCell>
        <mxCell id="GcK93VEjOKWXYyR5W1mf-35" value="" style="rhombus;" vertex="1" parent="GcK93VEjOKWXYyR5W1mf-23">
          <mxGeometry x="110" y="540" width="30" height="30" as="geometry" />
        </mxCell>
        <mxCell id="GcK93VEjOKWXYyR5W1mf-36" value="display config UI" style="" vertex="1" parent="GcK93VEjOKWXYyR5W1mf-23">
          <mxGeometry x="70" y="630" width="110" height="50" as="geometry" />
        </mxCell>
        <mxCell id="GcK93VEjOKWXYyR5W1mf-37" style="edgeStyle=orthogonalEdgeStyle;rounded=0;orthogonalLoop=1;jettySize=auto;html=1;exitX=1;exitY=0.5;exitDx=0;exitDy=0;" edge="1" parent="GcK93VEjOKWXYyR5W1mf-23" source="GcK93VEjOKWXYyR5W1mf-38" target="GcK93VEjOKWXYyR5W1mf-25">
          <mxGeometry relative="1" as="geometry" />
        </mxCell>
        <mxCell id="GcK93VEjOKWXYyR5W1mf-38" value="" style="rhombus;" vertex="1" parent="GcK93VEjOKWXYyR5W1mf-23">
          <mxGeometry x="30" y="120" width="30" height="30" as="geometry" />
        </mxCell>
        <mxCell id="GcK93VEjOKWXYyR5W1mf-39" style="edgeStyle=orthogonalEdgeStyle;rounded=0;orthogonalLoop=1;jettySize=auto;html=1;exitX=1;exitY=0.5;exitDx=0;exitDy=0;entryX=0;entryY=0.5;entryDx=0;entryDy=0;" edge="1" parent="1" source="GcK93VEjOKWXYyR5W1mf-2" target="GcK93VEjOKWXYyR5W1mf-38">
          <mxGeometry relative="1" as="geometry" />
        </mxCell>
        <mxCell id="GcK93VEjOKWXYyR5W1mf-40" value="" style="html=1;points=[];perimeter=orthogonalPerimeter;fillColor=strokeColor;" vertex="1" parent="1">
          <mxGeometry x="290" y="350" width="5" height="110" as="geometry" />
        </mxCell>
        <mxCell id="GcK93VEjOKWXYyR5W1mf-41" value="" style="html=1;verticalAlign=bottom;labelBackgroundColor=none;endArrow=block;endFill=1;rounded=0;entryX=0.171;entryY=0.093;entryDx=0;entryDy=0;entryPerimeter=0;" edge="1" parent="1" source="GcK93VEjOKWXYyR5W1mf-8" target="GcK93VEjOKWXYyR5W1mf-40">
          <mxGeometry width="160" relative="1" as="geometry">
            <mxPoint x="160" y="420" as="sourcePoint" />
            <mxPoint x="320" y="420" as="targetPoint" />
          </mxGeometry>
        </mxCell>
        <mxCell id="GcK93VEjOKWXYyR5W1mf-42" style="edgeStyle=orthogonalEdgeStyle;rounded=0;orthogonalLoop=1;jettySize=auto;html=1;exitX=0;exitY=0.5;exitDx=0;exitDy=0;entryX=1;entryY=0.5;entryDx=0;entryDy=0;" edge="1" parent="1" source="GcK93VEjOKWXYyR5W1mf-35" target="GcK93VEjOKWXYyR5W1mf-19">
          <mxGeometry relative="1" as="geometry" />
        </mxCell>
        <mxCell id="GcK93VEjOKWXYyR5W1mf-43" style="edgeStyle=orthogonalEdgeStyle;rounded=0;orthogonalLoop=1;jettySize=auto;html=1;exitX=0;exitY=0.5;exitDx=0;exitDy=0;" edge="1" parent="1" source="GcK93VEjOKWXYyR5W1mf-19" target="GcK93VEjOKWXYyR5W1mf-36">
          <mxGeometry relative="1" as="geometry">
            <mxPoint x="460" y="700" as="targetPoint" />
            <Array as="points">
              <mxPoint x="170" y="615" />
              <mxPoint x="170" y="720" />
            </Array>
          </mxGeometry>
        </mxCell>
        <mxCell id="GcK93VEjOKWXYyR5W1mf-44" value="Yes" style="edgeLabel;html=1;align=center;verticalAlign=middle;resizable=0;points=[];" vertex="1" connectable="0" parent="GcK93VEjOKWXYyR5W1mf-43">
          <mxGeometry x="-0.9216" y="-1" relative="1" as="geometry">
            <mxPoint as="offset" />
          </mxGeometry>
        </mxCell>
        <mxCell id="GcK93VEjOKWXYyR5W1mf-45" style="edgeStyle=orthogonalEdgeStyle;rounded=0;orthogonalLoop=1;jettySize=auto;html=1;exitX=1;exitY=0.5;exitDx=0;exitDy=0;entryX=1;entryY=0.5;entryDx=0;entryDy=0;" edge="1" parent="1" source="GcK93VEjOKWXYyR5W1mf-36" target="GcK93VEjOKWXYyR5W1mf-3">
          <mxGeometry relative="1" as="geometry">
            <Array as="points">
              <mxPoint x="690" y="715" />
              <mxPoint x="690" y="270" />
            </Array>
          </mxGeometry>
        </mxCell>
        <mxCell id="GcK93VEjOKWXYyR5W1mf-46" style="edgeStyle=orthogonalEdgeStyle;rounded=0;orthogonalLoop=1;jettySize=auto;html=1;exitX=1.15;exitY=0.139;exitDx=0;exitDy=0;entryX=0.5;entryY=1;entryDx=0;entryDy=0;exitPerimeter=0;" edge="1" parent="1" source="GcK93VEjOKWXYyR5W1mf-40" target="GcK93VEjOKWXYyR5W1mf-38">
          <mxGeometry relative="1" as="geometry">
            <mxPoint x="400" y="365" as="sourcePoint" />
          </mxGeometry>
        </mxCell>
      </root>
    </mxGraphModel>
  </diagram>
</mxfile>
